<svg width="58" height="58" viewBox="0 0 58 58" fill="none" xmlns="http://www.w3.org/2000/svg">
<rect x="1" y="-1" width="55.9095" height="56" rx="27.9548" transform="matrix(1 -8.75594e-08 -8.72864e-08 -1 -8.72864e-08 56)" stroke="white" stroke-width="2"/>
<path d="M16.2678 29.7071C15.8773 29.3166 15.8773 28.6834 16.2678 28.2929L22.6318 21.9289C23.0223 21.5384 23.6555 21.5384 24.046 21.9289C24.4365 22.3195 24.4365 22.9526 24.046 23.3431L18.3892 29L24.046 34.6569C24.4365 35.0474 24.4365 35.6805 24.046 36.0711C23.6555 36.4616 23.0223 36.4616 22.6318 36.0711L16.2678 29.7071ZM40.9375 30L16.9749 30L16.9749 28L40.9375 28L40.9375 30Z" fill="white"/>
</svg>
