<svg id="Layer_1" data-name="Layer 1" xmlns="http://www.w3.org/2000/svg" viewBox="0 0 35.93 41.9"><defs><style>.cls-1{fill:#0072fe;}</style></defs><title>file</title><path class="cls-1" d="M57.62,34.44A8.51,8.51,0,0,1,49,28a14.2,14.2,0,0,1-.23-3.44.84.84,0,0,1,.54-.76.84.84,0,0,1,1,.16c.29.26.56.54.84.82l8,7.95c.07.08.16.15.22.23a.84.84,0,0,1,.15.92.85.85,0,0,1-.79.56C58.25,34.46,57.89,34.44,57.62,34.44Z" transform="translate(-24.77 -22.47)"/><path class="cls-1" d="M60.68,40.85a3.41,3.41,0,0,0-2.82-3.32c-.76-.13-1.55-.1-2.32-.21a11.45,11.45,0,0,1-9.82-11.18A3.51,3.51,0,0,0,42,22.48H33.29a8.12,8.12,0,0,0-1.63.16A8.42,8.42,0,0,0,24.77,31V55.77A9,9,0,0,0,25,57.9a8.41,8.41,0,0,0,8.23,6.47h19a8.5,8.5,0,0,0,8.45-8.09C60.73,51.14,60.7,46,60.68,40.85ZM35.56,47.17a5.68,5.68,0,0,1-1.54.1c-.4,0-.49.12-.47.49,0,.77,0,1.53,0,2.29,0,.34-.13.49-.46.5l-.14,0c-1.26.13-1.35,0-1.35-1.2V41.94c0-.61.21-.84.8-.83a22.59,22.59,0,0,1,3.08.06,2.69,2.69,0,0,1,2.65,2.67A3.13,3.13,0,0,1,35.56,47.17Zm11.72.13a3.86,3.86,0,0,1-3.45,3.14,28.23,28.23,0,0,1-3.68.09c-.43,0-.54-.28-.54-.66v-8c0-.62.16-.79.77-.78a19.84,19.84,0,0,1,3.77.16,3.78,3.78,0,0,1,3.23,3.44A7.12,7.12,0,0,1,47.28,47.3Zm6.4-4.62c-.8,0-1.59,0-2.39,0-.26,0-.34.08-.33.34,0,.62,0,1.25,0,1.87,0,.26.07.34.34.34.77,0,1.55,0,2.33,0,.38,0,.51.14.51.48v.09c0,.91,0,1-.89,1-.61,0-1.22,0-1.82,0-.41,0-.49.12-.48.5,0,.93,0,1.87,0,2.8,0,.37-.15.49-.49.52-1.38.15-1.47.09-1.47-1.27V45.92c0-1.34,0-2.68,0-4,0-.61.17-.79.77-.79,1.34,0,2.68,0,4,0a.44.44,0,0,1,.51.47c0,.15,0,.31,0,.46C54.31,42.61,54.24,42.68,53.68,42.68Z" transform="translate(-24.77 -22.47)"/><path class="cls-1" d="M41.51,45.82c0-1,0-1.9,0-2.85,0-.25,0-.36.33-.35a8.79,8.79,0,0,1,1.54.08,2.53,2.53,0,0,1,2.05,2.41,5.16,5.16,0,0,1-.14,2A2.38,2.38,0,0,1,43,49c-.39,0-.78,0-1.17,0s-.3-.11-.3-.33C41.51,47.75,41.51,46.79,41.51,45.82Z" transform="translate(-24.77 -22.47)"/><path class="cls-1" d="M33.56,44.23c0-.42,0-.84,0-1.26,0-.24.06-.34.31-.33s.56,0,.84,0A1.28,1.28,0,0,1,36.07,44a1.62,1.62,0,0,1-1,1.82,5.23,5.23,0,0,1-1.25.09c-.21,0-.22-.13-.22-.28C33.56,45.13,33.56,44.68,33.56,44.23Z" transform="translate(-24.77 -22.47)"/></svg>