<svg id="Layer_3" data-name="Layer 3" xmlns="http://www.w3.org/2000/svg" viewBox="0 0 383.32 383.38"><title>setting</title><path d="M634.56,697.18H591.14a9.09,9.09,0,0,0-1.35-.62c-11-2.89-17.11-10.17-18.68-21.28q-1.8-12.78-3.16-25.62c-.27-2.57-1.2-3.89-3.7-4.79-5.38-1.93-10.67-4.16-15.87-6.55-2.07-1-3.48-1-5.32.5q-10.21,8.2-20.66,16.1c-11,8.37-23.32,7.62-33.11-2q-12-11.82-23.82-23.82c-9.68-9.8-10.42-22.1-2-33.09,5.38-7,10.91-14,16.19-21.06a5.11,5.11,0,0,0,.55-4.18c-2.19-5.82-4.57-11.58-7.18-17.23a5.66,5.66,0,0,0-3.6-2.85c-8.5-1.27-17-2.28-25.59-3.27-13.81-1.61-22.58-11.28-22.61-25.13,0-11.6-.09-23.21,0-34.81a23.35,23.35,0,0,1,19.49-23.18c9.33-1.55,18.76-2.59,28.17-3.68a4.7,4.7,0,0,0,4.51-3.53,134.07,134.07,0,0,1,6.25-15.18c1.48-2.95,1.1-4.8-.9-7.23-5.22-6.36-10.19-12.93-15.2-19.46-8.54-11.14-7.78-23.49,2.05-33.39q11.73-11.82,23.56-23.55c9.82-9.75,22.09-10.61,33.07-2.27,7,5.35,14,10.91,21,16.2a5.12,5.12,0,0,0,4.16.73q8.92-3.33,17.58-7.3a5.61,5.61,0,0,0,2.71-3.72c1.26-8.51,2.23-17.06,3.27-25.6,1.67-13.83,11.3-22.41,25.27-22.44,11.48,0,23-.08,34.43,0,11.84.1,21.45,8,23.4,19.67,1.54,9.21,2.58,18.52,3.63,27.8.29,2.58,1.24,3.87,3.72,4.77,5.49,2,10.9,4.26,16.2,6.72a4.11,4.11,0,0,0,5-.63c6.73-5.36,13.55-10.61,20.35-15.88,11.12-8.6,23.45-8,33.4,1.8q12,11.81,23.82,23.82c9.69,9.85,10.42,22.13,2,33.11-5.38,7-10.92,13.94-16.2,21a5.1,5.1,0,0,0-.56,4.19c2.19,5.82,4.57,11.58,7.18,17.22a5.65,5.65,0,0,0,3.59,2.86c8.51,1.27,17.05,2.28,25.6,3.27,7.56.88,14,3.87,18.2,10.37,1.93,3,3,6.51,4.42,9.79v43.43a8.18,8.18,0,0,0-.62,1.35c-2.9,11-10.18,17.11-21.29,18.69q-12.76,1.8-25.6,3.15a4.88,4.88,0,0,0-4.76,3.73A150,150,0,0,1,746,569.33c-1.25,2.59-1.27,4.3.62,6.61,5.39,6.54,10.52,13.3,15.67,20,8.36,10.95,7.62,23.26-2.06,33.11q-11.81,12-23.82,23.83c-9.81,9.67-22.17,10.4-33.09,2-6.93-5.32-13.83-10.66-20.66-16.09a4.13,4.13,0,0,0-5-.65c-5.42,2.5-10.94,4.82-16.54,6.88a4.39,4.39,0,0,0-3.32,4.25c-.7,6.69-1.54,13.37-2.42,20.05-.82,6.16-1.26,12.4-5.12,17.74S640.79,695.39,634.56,697.18Zm-26.38-55.1c75.06,2.36,137.71-56,141.28-131.58,3.5-73.94-55.54-137.73-132-141.54-73.81-3.68-137.28,55.47-141.19,131.58C472.49,574.64,531.57,638.05,608.18,642.08Z" transform="translate(-421.17 -313.8)"/></svg>