<svg id="Layer_2" data-name="Layer 2" xmlns="http://www.w3.org/2000/svg" viewBox="0 0 78.45 78.45"><defs><style>.cls-1{fill:none;stroke:red;stroke-miterlimit:10;stroke-width:3px;}</style></defs><title>speakceroff</title><path d="M551.3,456.31q0,12.54,0,25.09a8.77,8.77,0,0,1-5.66,8.62,8.56,8.56,0,0,1-8.78-1.53q-8.05-6.42-16.06-12.86a3,3,0,0,0-2.08-.74c-1.8.06-3.61,0-5.41,0a10.74,10.74,0,0,1-11-11q0-7.59,0-15.16a10.73,10.73,0,0,1,10.95-11c1.84,0,3.68,0,5.51,0a2.86,2.86,0,0,0,2-.69q8.07-6.51,16.2-13a8.66,8.66,0,0,1,11.16,0,8.84,8.84,0,0,1,3.19,7.21Q551.29,443.77,551.3,456.31Zm-5.88.05q0-12.58,0-25.17a3,3,0,0,0-1.68-3,2.92,2.92,0,0,0-3.31.56l-16,12.8a1.47,1.47,0,0,0-.64,1.3q0,13.46,0,26.91a1.47,1.47,0,0,0,.62,1.31c3,2.35,5.93,4.73,8.89,7.11,2.41,1.93,4.81,3.88,7.24,5.79a2.84,2.84,0,0,0,4.58-1,4.62,4.62,0,0,0,.26-1.7Q545.42,468.8,545.42,456.36ZM517.89,469V443.59c-1.73,0-3.41,0-5.08,0a4.76,4.76,0,0,0-4.62,4.68c-.05,5.35,0,10.7,0,16.06a4.67,4.67,0,0,0,4,4.59C514.05,469.11,516,469,517.89,469Z" transform="translate(-501.52 -417.08)"/><path d="M578.76,457.26a29.63,29.63,0,0,1-7.52,19c-1.35,1.56-3.12,1.79-4.5.57s-1.28-2.91,0-4.41a24.51,24.51,0,0,0,.29-32,4.47,4.47,0,0,1-1-2,2.66,2.66,0,0,1,1.59-2.92,2.56,2.56,0,0,1,3.21.49,36.23,36.23,0,0,1,3.65,4.81C577.42,445.56,578.74,450.76,578.76,457.26Z" transform="translate(-501.52 -417.08)"/><path d="M567,456a18.71,18.71,0,0,1-5.12,13.21,2.86,2.86,0,0,1-3.08.91,2.82,2.82,0,0,1-2.06-2.25,3,3,0,0,1,.91-2.75,12.54,12.54,0,0,0,3.43-9.4,12.36,12.36,0,0,0-3.06-7.6,3.2,3.2,0,0,1-.91-2.42,2.94,2.94,0,0,1,5.13-1.7,18.15,18.15,0,0,1,4.52,9.57C566.92,454.46,567,455.41,567,456Z" transform="translate(-501.52 -417.08)"/><path d="M517.89,469c-1.94,0-3.84.15-5.71,0a4.67,4.67,0,0,1-4-4.59c0-5.36-.05-10.71,0-16.06a4.76,4.76,0,0,1,4.62-4.68c1.67-.05,3.35,0,5.08,0Z" transform="translate(-501.52 -417.08)"/><line class="cls-1" x1="77.39" y1="1.06" x2="1.06" y2="77.39"/></svg>